<?xml version="1.0" standalone="no"?>
<!DOCTYPE svg PUBLIC "-//W3C//DTD SVG 20010904//EN"
 "http://www.w3.org/TR/2001/REC-SVG-20010904/DTD/svg10.dtd">
<svg version="1.0" xmlns="http://www.w3.org/2000/svg"
 width="241.000000pt" height="209.000000pt" viewBox="0 0 241.000000 209.000000"
 preserveAspectRatio="xMidYMid meet">

<g transform="translate(0.000000,209.000000) scale(0.100000,-0.100000)"
fill="#ffdb70" stroke="none">
<path d="M1437 2073 c-3 -5 -8 -27 -12 -51 -5 -34 -10 -42 -23 -38 -120 37
-397 58 -507 37 -73 -13 -161 -57 -187 -92 -11 -14 -46 -95 -79 -179 -80 -208
-79 -250 15 -370 l43 -55 -13 -50 c-19 -70 -17 -143 5 -190 20 -44 234 -251
288 -279 21 -10 56 -16 100 -16 126 0 290 74 473 211 l90 67 29 -40 c21 -28
32 -36 35 -27 15 43 102 509 95 509 -4 0 -65 -14 -136 -30 -70 -17 -168 -40
-218 -52 -123 -29 -121 -27 -80 -75 19 -23 35 -45 35 -50 -1 -4 -28 -29 -61
-55 l-60 -47 -45 19 c-57 25 -120 61 -212 122 l-73 49 32 57 c35 61 114 179
153 226 l24 28 81 -17 c44 -10 81 -20 81 -22 0 -3 -7 -30 -16 -60 -9 -30 -14
-56 -12 -57 1 -2 77 13 168 34 91 21 200 45 242 55 l77 17 -126 166 c-186 244
-201 263 -206 255z m-528 -371 c-8 -10 -38 -51 -68 -91 l-54 -72 -19 28 c-28
42 -70 124 -65 129 9 9 95 22 156 23 60 1 63 0 50 -17z m66 -571 l98 -49 -29
-15 c-34 -18 -160 -57 -181 -57 -13 0 -15 11 -9 77 6 69 12 93 20 93 1 0 47
-22 101 -49z"/>
<path d="M0 220 l0 -210 108 0 c124 0 173 17 215 71 65 87 58 228 -15 296 -43
41 -90 53 -203 53 l-105 0 0 -210z m245 146 c49 -32 66 -73 63 -151 -5 -117
-58 -165 -182 -165 l-66 0 0 171 0 172 79 -5 c52 -3 88 -11 106 -22z"/>
<path d="M806 370 c-5 -31 -11 -40 -26 -40 -26 0 -26 -26 0 -33 19 -5 20 -14
20 -136 0 -128 0 -131 25 -147 31 -20 97 -12 88 11 -3 8 -13 15 -22 15 -35 0
-41 21 -41 142 l0 118 30 0 c20 0 30 5 30 15 0 10 -10 15 -30 15 -28 0 -30 2
-30 40 0 32 -4 40 -19 40 -14 0 -20 -10 -25 -40z"/>
<path d="M510 329 c-59 -25 -84 -79 -35 -79 14 0 25 4 25 9 0 33 82 55 118 33
14 -10 34 -71 26 -83 -3 -5 -34 -9 -70 -9 -99 0 -144 -31 -144 -99 0 -85 68
-123 155 -87 18 8 39 25 46 38 l13 23 6 -25 c7 -30 41 -49 75 -42 31 6 33 30
3 34 -22 3 -23 8 -28 121 -5 110 -7 119 -32 144 -21 20 -38 27 -80 30 -29 1
-64 -2 -78 -8z m135 -169 c11 -17 -15 -79 -42 -100 -31 -24 -80 -26 -105 -3
-31 28 -17 86 25 103 31 12 115 12 122 0z"/>
<path d="M1023 326 c-30 -14 -53 -42 -53 -65 0 -21 42 -11 62 14 14 19 29 25
57 25 50 0 72 -18 74 -60 l2 -35 -75 -6 c-91 -7 -107 -13 -125 -50 -47 -91 29
-172 130 -139 20 6 43 23 52 37 l16 24 13 -29 c7 -17 21 -32 31 -34 29 -6 63
3 63 17 0 8 -10 15 -22 17 -22 3 -23 8 -28 120 -5 111 -6 119 -32 144 -33 33
-114 43 -165 20z m144 -193 c-13 -81 -115 -125 -153 -67 -13 19 -15 32 -8 52
12 35 48 52 113 52 l54 0 -6 -37z"/>
<path d="M1372 325 c-68 -30 -95 -166 -49 -255 26 -54 78 -78 141 -66 64 12
130 96 75 96 -11 0 -32 -13 -46 -30 -43 -52 -110 -34 -133 36 -18 53 -7 141
21 170 33 35 80 32 112 -6 26 -30 67 -41 67 -17 0 21 -29 56 -60 72 -36 19
-85 19 -128 0z"/>
<path d="M1684 324 c-50 -24 -69 -68 -69 -156 0 -62 4 -82 21 -105 32 -44 81
-65 136 -59 90 10 128 59 128 168 0 79 -22 127 -70 150 -43 22 -105 23 -146 2z
m137 -50 c21 -22 24 -35 24 -99 0 -59 -4 -79 -21 -102 -27 -35 -89 -44 -122
-16 -45 37 -46 188 -1 226 32 26 91 22 120 -9z"/>
<path d="M2055 309 l-35 -31 0 26 c0 20 -5 26 -22 26 l-23 0 3 -160 3 -160 24
0 25 0 0 120 c0 116 1 122 25 146 19 19 34 24 57 22 48 -5 58 -33 58 -170 l0
-118 25 0 25 0 0 120 c0 116 1 122 25 146 19 19 34 24 57 22 48 -5 58 -33 58
-170 l0 -118 26 0 26 0 -4 141 c-3 140 -3 141 -31 165 -16 14 -41 24 -58 24
-36 0 -84 -23 -92 -44 -5 -12 -12 -9 -36 14 -41 41 -88 41 -136 -1z"/>
</g>
</svg>
