<?xml version="1.0" standalone="no"?>
<!DOCTYPE svg PUBLIC "-//W3C//DTD SVG 20010904//EN"
 "http://www.w3.org/TR/2001/REC-SVG-20010904/DTD/svg10.dtd">
<svg version="1.0" xmlns="http://www.w3.org/2000/svg"
 width="225.000000pt" height="225.000000pt" viewBox="0 0 225.000000 225.000000"
 preserveAspectRatio="xMidYMid meet">

<g transform="translate(0.000000,225.000000) scale(0.100000,-0.100000)"
fill="#ffdb70" stroke="none">
<path d="M453 643 l-33 -4 0 -135 0 -134 60 0 c77 0 124 20 150 62 37 61 17
164 -39 192 -31 16 -93 24 -138 19z m120 -74 c10 -12 17 -38 17 -62 0 -53 -30
-87 -77 -87 l-33 0 0 91 0 92 38 -6 c20 -4 45 -16 55 -28z"/>
<path d="M1100 509 l0 -140 28 3 27 3 3 138 3 137 -31 0 -30 0 0 -141z"/>
<path d="M1200 510 l0 -140 55 0 c98 0 133 36 122 127 -7 61 -36 87 -89 80
l-38 -5 0 39 c0 35 -3 39 -25 39 l-25 0 0 -140z m126 -16 c10 -41 -10 -74 -46
-74 -29 0 -30 1 -30 50 0 36 5 52 17 59 24 13 51 -3 59 -35z"/>
<path d="M1420 625 c0 -20 5 -25 25 -25 20 0 25 5 25 25 0 20 -5 25 -25 25
-20 0 -25 -5 -25 -25z"/>
<path d="M1520 530 c0 -107 2 -122 20 -140 19 -19 88 -29 102 -14 11 10 -4 43
-17 38 -7 -3 -23 -1 -34 6 -17 9 -21 20 -21 60 l0 50 35 0 c31 0 35 3 35 25 0
22 -4 25 -35 25 -33 0 -35 2 -35 35 0 31 -3 35 -25 35 l-25 0 0 -120z"/>
<path d="M798 498 c-2 -64 -6 -83 -18 -85 -33 -6 -44 15 -48 86 -4 68 -5 71
-29 71 -25 0 -25 0 -21 -81 4 -103 21 -121 107 -117 l56 3 3 103 3 102 -25 0
c-25 0 -25 -2 -28 -82z"/>
<path d="M929 565 c-56 -30 -64 -129 -14 -172 42 -37 135 -30 135 9 0 16 -5
18 -35 12 -25 -4 -43 -1 -60 10 -40 26 -29 36 40 36 l65 0 0 35 c0 69 -67 105
-131 70z m79 -47 c21 -21 13 -28 -28 -28 -38 0 -52 14 -33 33 11 11 48 8 61
-5z"/>
<path d="M1420 475 l0 -105 25 0 25 0 0 105 0 105 -25 0 -25 0 0 -105z"/>
<path d="M1700 560 c-11 -11 -20 -24 -20 -29 0 -30 23 -59 59 -76 23 -10 41
-22 41 -26 0 -15 -45 -21 -73 -10 -25 10 -27 8 -27 -13 0 -27 16 -36 69 -36
96 0 112 83 24 121 -53 22 -53 44 0 43 26 -1 37 3 40 17 9 34 -80 42 -113 9z"/>
</g>
</svg>
